HIERARCHY
ROOT Hips
{
	OFFSET 0.000000 0.000000 0.000000
	CHANNELS 6 Xposition Yposition Zposition Zrotation Yrotation Xrotation 
	JOINT LHipJoint
	{
		OFFSET 0.000000 0.000000 0.000000
		CHANNELS 3 Zrotation Yrotation Xrotation
		JOINT LeftUpLeg
		{
			OFFSET 1.363060 -1.794630 0.839290
			CHANNELS 3 Zrotation Yrotation Xrotation
			JOINT LeftLeg
			{
				OFFSET 2.448110 -6.726130 0.000000
				CHANNELS 3 Zrotation Yrotation Xrotation
				JOINT LeftFoot
				{
					OFFSET 2.562200 -7.039590 0.000000
					CHANNELS 3 Zrotation Yrotation Xrotation
					JOINT LeftToeBase
					{
						OFFSET 0.157640 -0.433110 2.322550
						CHANNELS 3 Zrotation Yrotation Xrotation
						End Site
						{
							OFFSET 0.000000 0.000000 0.000000
						}
					}
				}
			}
		}
	}
	JOINT RHipJoint
	{
		OFFSET 0.000000 0.000000 0.000000
		CHANNELS 3 Zrotation Yrotation Xrotation
		JOINT RightUpLeg
		{
			OFFSET -1.305520 -1.794630 0.839290
			CHANNELS 3 Zrotation Yrotation Xrotation
			JOINT RightLeg
			{
				OFFSET -2.542530 -6.985550 0.000000
				CHANNELS 3 Zrotation Yrotation Xrotation
				JOINT RightFoot
				{
					OFFSET -2.568260 -7.056230 0.000000
					CHANNELS 3 Zrotation Yrotation Xrotation
					JOINT RightToeBase
					{
						OFFSET -0.164730 -0.452590 2.363150
						CHANNELS 3 Zrotation Yrotation Xrotation
						End Site
						{
							OFFSET 0.000000 0.000000 0.000000
						}
					}
				}
			}
		}
	}
	JOINT LowerBack
	{
		OFFSET 0.000000 0.000000 0.000000
		CHANNELS 3 Zrotation Yrotation Xrotation
		JOINT Spine
		{
			OFFSET 0.028270 2.035590 -0.193380
			CHANNELS 3 Zrotation Yrotation Xrotation
			JOINT Spine1
			{
				OFFSET 0.056720 2.048850 -0.042750
				CHANNELS 3 Zrotation Yrotation Xrotation
				JOINT Neck
				{
					OFFSET 0.000000 0.000000 0.000000
					CHANNELS 3 Zrotation Yrotation Xrotation
					JOINT Neck1
					{
						OFFSET -0.054170 1.746240 0.172020
						CHANNELS 3 Zrotation Yrotation Xrotation
						JOINT Head
						{
							OFFSET 0.104070 1.761360 -0.123970
							CHANNELS 3 Zrotation Yrotation Xrotation
							End Site
							{
								OFFSET 0.000000 0.000000 0.000000
							}
						}
					}
				}
				JOINT LeftShoulder
				{
					OFFSET 0.000000 0.000000 0.000000
					CHANNELS 3 Zrotation Yrotation Xrotation
					JOINT LeftArm
					{
						OFFSET 3.362410 1.200890 -0.311210
						CHANNELS 3 Zrotation Yrotation Xrotation
						JOINT LeftForeArm
						{
							OFFSET 4.983000 -0.000000 -0.000000
							CHANNELS 3 Zrotation Yrotation Xrotation
							JOINT LeftHand
							{
								OFFSET 3.483560 -0.000000 -0.000000
								CHANNELS 3 Zrotation Yrotation Xrotation
								JOINT LeftFingerBase
								{
									OFFSET 0.000000 0.000000 0.000000
									CHANNELS 3 Zrotation Yrotation Xrotation
									JOINT LeftHandIndex1
									{
										OFFSET 0.715260 -0.000000 -0.000000
										CHANNELS 3 Zrotation Yrotation Xrotation
										End Site
										{
											OFFSET 0.000000 0.000000 0.000000
										}
									}
								}
								JOINT LThumb
								{
									OFFSET 0.000000 0.000000 0.000000
									CHANNELS 3 Zrotation Yrotation Xrotation
									End Site
									{
										OFFSET 0.000000 0.000000 0.000000
									}
								}
							}
						}
					}
				}
				JOINT RightShoulder
				{
					OFFSET 0.000000 0.000000 0.000000
					CHANNELS 3 Zrotation Yrotation Xrotation
					JOINT RightArm
					{
						OFFSET -3.136600 1.374050 -0.404650
						CHANNELS 3 Zrotation Yrotation Xrotation
						JOINT RightForeArm
						{
							OFFSET -5.241900 -0.000000 -0.000000
							CHANNELS 3 Zrotation Yrotation Xrotation
							JOINT RightHand
							{
								OFFSET -3.444170 -0.000000 -0.000000
								CHANNELS 3 Zrotation Yrotation Xrotation
								JOINT RightFingerBase
								{
									OFFSET 0.000000 0.000000 0.000000
									CHANNELS 3 Zrotation Yrotation Xrotation
									JOINT RightHandIndex1
									{
										OFFSET -0.622530 -0.000000 -0.000000
										CHANNELS 3 Zrotation Yrotation Xrotation
										End Site
										{
											OFFSET 0.000000 0.000000 0.000000
										}
									}
								}
								JOINT RThumb
								{
									OFFSET 0.000000 0.000000 0.000000
									CHANNELS 3 Zrotation Yrotation Xrotation
									End Site
									{
										OFFSET 0.000000 0.000000 0.000000
									}
								}
							}
						}
					}
				}
			}
		}
	}
}
MOTION
Frames: 7
Frame Time: 0.008333
2.863587 16.613762 0.784303 18.719925 -60.353943 14.415242 -8.852136 -0.925839 3.540914 -15.646235 -12.221652 -52.454825 -2.374186 0.744563 31.076777 1.182429 5.325233 -4.868164 0.690200 -0.000001 -43.815900 8.816571 0.580117 -4.574911 13.009354 -35.137184 -57.843608 5.034405 -5.369691 38.540748 -1.699865 -5.490552 -10.519604 -0.069000 0.000001 -68.327200 -1.087048 3.697564 2.928607 1.201153 3.964791 -2.260378 5.381364 3.848488 -0.456693 -11.013653 -7.353416 -12.015927 2.228627 0.284552 -1.582584 0.000000 0.000000 0.000000 7.192535 10.947003 -1.188696 -79.677434 5.764335 16.661504 176.787050 -54.962780 179.872064 9.908520 -4.541422 -0.455090 0.045044 0.719743 0.000000 0.000000 0.000000 0.000000 0.000000 0.000000 0.000000 -30.615429 2.405718 5.245002 -20.926306 30.966807 -113.003033 -3.667438 -1.419984 -0.120260 -23.271896 15.645460 -3.485583 0.611462 -0.752389 0.000000 0.000000 0.000000 0.000000 0.000000 0.000000 0.000000 
2.866772 16.612152 0.779680 18.517888 -59.845644 14.706656 -8.832015 -0.918022 3.592443 -15.631252 -12.368814 -52.546143 -2.401737 0.744304 30.959380 1.107907 4.961875 -4.698999 0.678900 0.000000 -43.928201 8.804020 0.561242 -4.618936 13.244781 -35.433444 -58.012791 5.062465 -5.394949 38.576805 -1.718366 -5.576568 -10.590057 -0.059999 0.000000 -68.206600 -1.195524 3.696376 2.946137 1.204519 3.977547 -2.229900 5.494771 3.855280 -0.280824 -11.025934 -7.627216 -12.101298 2.329267 0.295141 -1.612340 0.000000 0.000000 0.000000 7.325872 11.429054 -1.187816 -80.229041 5.833333 16.324705 176.696048 -55.146593 179.871987 9.684443 -4.702956 -0.458026 0.065153 0.724647 0.000000 0.000000 0.000000 0.000000 0.000000 0.000000 0.000000 -30.955345 2.073697 5.253949 -21.298118 29.868142 -113.274536 -3.729502 -1.732078 -0.121988 -24.827361 14.696931 -3.501947 0.670870 -0.722374 -0.000000 0.000000 0.000000 0.000000 0.000000 0.000000 0.000000 
2.872075 16.610724 0.776016 18.283427 -59.377356 15.028472 -8.817476 -0.919228 3.631527 -15.575841 -12.512566 -52.647864 -2.420504 0.745001 30.864486 1.042829 4.641195 -4.549682 0.667200 0.000000 -44.035200 8.785003 0.544331 -4.675209 13.486480 -35.687173 -58.157666 5.087790 -5.417350 38.605913 -1.738166 -5.673425 -10.645918 -0.052700 0.000000 -68.097200 -1.266096 3.695173 2.992890 1.208085 3.987694 -2.194610 5.573276 3.860142 -0.111023 -10.967976 -7.982556 -12.174865 2.418157 0.304687 -1.640151 0.000000 0.000000 0.000000 7.434581 11.914850 -1.174600 -80.798222 5.868466 15.979281 176.613376 -55.329304 179.871624 9.490651 -4.852838 -0.460846 0.083147 0.729919 0.000000 0.000000 0.000000 0.000000 0.000000 0.000000 0.000000 -31.190793 1.667919 5.218856 -21.626087 28.984696 -113.559275 -3.788049 -1.648061 -0.124868 -26.031954 13.925745 -3.487629 0.717834 -0.701699 0.000000 0.000000 0.000000 0.000000 0.000000 0.000000 0.000000 
2.879546 16.609814 0.773558 18.014191 -58.955384 15.381753 -8.809218 -0.928652 3.659512 -15.475317 -12.655589 -52.758777 -2.429641 0.746286 30.786684 0.988293 4.369817 -4.418628 0.656400 0.000000 -44.135200 8.758533 0.530641 -4.744156 13.732875 -35.894475 -58.272253 5.109981 -5.434972 38.621203 -1.759672 -5.783970 -10.682644 -0.047800 -0.000000 -68.001201 -1.291688 3.688912 3.066716 1.215626 3.990221 -2.150687 5.627511 3.856705 0.072971 -10.854890 -8.435634 -12.252621 2.494831 0.313522 -1.670600 0.000000 0.000000 0.000000 7.484450 12.413616 -1.158999 -81.371178 5.871815 15.621729 176.536809 -55.501004 179.870933 9.343354 -4.985008 -0.464050 0.098534 0.735020 0.000000 0.000000 0.000000 0.000000 0.000000 0.000000 0.000000 -31.292967 1.165661 5.199318 -22.290235 28.214687 -114.597155 -3.848739 -1.708744 -0.126281 -26.761217 13.978422 -3.602915 0.745120 -0.704169 0.000000 0.000000 0.000000 0.000000 0.000000 0.000000 0.000000 
2.888899 16.609917 0.772299 17.725566 -58.582505 15.761914 -8.812094 -0.950962 3.670179 -15.328919 -12.796514 -52.874072 -2.429041 0.747713 30.714012 0.944663 4.152272 -4.298852 0.648100 0.000000 -44.228501 8.719795 0.522540 -4.830627 13.977627 -36.050488 -58.348790 5.129510 -5.447087 38.610410 -1.783458 -5.912499 -10.693372 -0.046401 -0.000000 -67.921900 -1.235760 3.687660 3.180548 1.251484 3.993640 -2.095742 5.726792 3.851706 0.260321 -10.857049 -9.093247 -12.309467 2.626617 0.326824 -1.697828 0.000000 0.000000 0.000000 7.302017 12.921628 -1.135092 -81.851174 5.806908 15.262920 176.487855 -55.669379 179.869870 9.274094 -5.071634 -0.467621 0.108131 0.740109 0.000000 0.000000 0.000000 0.000000 0.000000 0.000000 0.000000 -31.721098 0.508194 5.095015 -22.531604 27.818532 -116.938185 -3.932031 -1.145654 -0.129147 -26.670261 14.830056 -3.809408 0.741402 -0.738607 0.000000 0.000000 0.000000 0.000000 0.000000 0.000000 0.000000 
2.900429 16.610255 0.772411 17.409462 -58.253112 16.171215 -8.821102 -0.982320 3.672283 -15.139947 -12.942916 -53.005796 -2.418589 0.749156 30.661643 0.911885 3.986454 -4.198887 0.641801 0.000000 -44.309900 8.674230 0.515476 -4.925920 14.225343 -36.156800 -58.405586 5.146015 -5.455618 38.589556 -1.809577 -6.056007 -10.688229 -0.047400 0.000000 -67.850700 -1.143645 3.689475 3.315216 1.276145 3.997150 -2.040929 5.745921 3.848922 0.430935 -10.735322 -9.790820 -12.352087 2.715705 0.336303 -1.720747 0.000000 0.000000 0.000000 7.147721 13.395081 -1.104149 -82.333303 5.728048 14.909942 176.446063 -55.823620 179.868423 9.266331 -5.138046 -0.472671 0.114222 0.745039 0.000000 0.000000 0.000000 0.000000 0.000000 0.000000 0.000000 -31.874141 -0.181670 4.950914 -22.867288 27.613840 -118.730010 -3.982141 -0.181348 -0.133226 -26.117900 15.680216 -3.944233 0.723988 -0.779904 -0.000000 0.000000 0.000000 0.000000 0.000000 0.000000 0.000000 
2.913749 16.610457 0.773697 17.072796 -57.969586 16.604904 -8.832978 -1.018724 3.670282 -14.916881 -13.093345 -53.159989 -2.399903 0.750791 30.632130 0.889145 3.868155 -4.119537 0.637600 -0.000000 -44.377000 8.625673 0.508486 -5.023135 14.475369 -36.210116 -58.455572 5.158928 -5.461130 38.566624 -1.838209 -6.212644 -10.673298 -0.050300 0.000000 -67.780801 -1.041440 3.687956 3.458814 1.278533 3.995794 -1.986924 5.660433 3.843815 0.595270 -10.429186 -10.470709 -12.396427 2.735380 0.339989 -1.742785 0.000000 0.000000 0.000000 7.090596 13.836155 -1.073662 -82.839297 5.649963 14.569641 176.403789 -55.959822 179.866620 9.315330 -5.192844 -0.479803 0.117683 0.749399 0.000000 0.000000 0.000000 0.000000 0.000000 0.000000 0.000000 -31.571028 -0.872495 4.823398 -23.661088 27.443829 -119.787041 -3.988739 0.722353 -0.136267 -25.224977 16.581433 -4.026983 0.695802 -0.823838 -0.000000 0.000000 0.000000 0.000000 0.000000 0.000000 0.000000 
